<svg version="1.2" xmlns="http://www.w3.org/2000/svg" viewBox="0 0 618 119" width="618" height="119">
	<title>New Project</title>
	<style>
		.s0 { fill: #010101 } 
	</style>
	<path id="Path 0" fill-rule="evenodd" class="s0" d="m0 0h254.5c202.6 0 254.6 0.3 255.1 1.3 0.5 0.9 0.8 0.9 1.7-0.1 0.6-0.7 3.4-1.2 6.7-1.2 3 0 6.2 0.4 7 1 0.9 0.5 1.9 0.5 2.5 0 0.6-0.6 17.8-0.9 81-0.5l0.5 9.5h9v109h-609v-9h-9zm261 10h-252v90h591v-90c-61.6 0-81.2-0.4-83.4-0.9-2.3-0.5-3.8-0.5-3.7 0 0 0.5-104.2 0.9-251.9 0.9zm319 50h9v30h-29v-9h10v-10h10z"/>
</svg>